<svg xmlns="http://www.w3.org/2000/svg" width="100%" height="100%" viewBox="0 0 571 73" fill="none">
<path d="M14.0688 27.2938C14.0785 24.418 11.7798 22.0126 8.90878 22.0126H5.56738C2.49271 22.0126 0 24.5053 0 27.5799V64.9124C0 67.8513 2.38117 70.2373 5.3249 70.2373H9.42769C12.3666 70.2373 14.7526 67.8561 14.7526 64.9124V42.4877C14.7526 38.123 17.5654 34.1463 22.706 34.1463C28.0454 34.1463 30.4654 37.7351 30.4654 42.2937V64.9124C30.4654 67.8513 32.8466 70.2373 35.7903 70.2373H39.6991C42.638 70.2373 45.024 67.8561 45.024 64.9124V42.3907C45.024 38.123 47.8368 34.1463 53.0744 34.1463C58.312 34.1463 60.7416 37.7351 60.7416 42.2937V64.9124C60.7416 67.8513 63.1228 70.2373 66.0665 70.2373H69.6844C72.6232 70.2373 75.0093 67.8561 75.0093 64.9124V38.996C75.0093 25.8971 66.6582 20.548 57.5409 20.548C51.6437 20.548 44.0492 24.9854 43.2151 32.2501C43.1714 32.6381 42.832 32.9291 42.4391 32.9291C42.0463 32.9291 41.7262 32.6381 41.6583 32.2501C40.6205 26.1687 34.5148 20.5528 27.9581 20.548C22.8903 20.548 16.2851 22.8418 14.2531 32.0562C14.1997 32.3035 14.1512 32.5169 13.996 32.6721C13.3607 33.3122 12.3278 32.6333 12.6963 31.7797C12.6769 31.7797 14.0639 28.933 14.0688 27.2938Z" fill="#FF4E75"></path>
<path d="M196.317 40.3153L189.916 39.0544C187.782 38.6664 186.133 37.5025 186.133 35.4657C186.133 32.9439 188.558 31.295 191.371 31.295C194.591 31.295 196.55 32.7111 197.535 34.6994C198.262 36.164 199.93 36.906 201.54 36.615L206.482 35.713C208.878 35.2765 210.284 32.7111 209.285 30.4899C207.093 25.6161 201.744 20.6161 191.172 20.6161C180.401 20.6161 172.641 27.7935 172.641 36.6247C172.641 43.4142 176.715 49.2386 187.001 51.4695L192.53 52.7304C196.119 53.5063 197.282 54.9612 197.282 56.7071C197.282 58.8409 195.44 60.8777 191.657 60.8777C188.049 60.8777 185.832 59.2434 184.79 57.1047C184.038 55.5625 182.384 54.6799 180.702 54.9806L175.566 55.8972C173.175 56.3239 171.764 58.87 172.738 61.096C174.94 66.1347 180.503 71.7409 191.948 71.7409C204.853 71.7409 211.157 63.6905 211.157 55.4413C211.162 48.3657 206.308 42.3521 196.317 40.3153Z" fill="#FF4E75"></path>
<path d="M469.73 20.6161C455.37 20.6161 444.114 31.1931 444.114 46.13C444.114 61.0717 455.37 71.7409 469.73 71.7409C484.187 71.7409 495.341 61.0669 495.341 46.13C495.346 31.1931 484.187 20.6161 469.73 20.6161ZM469.73 58.1668C464.201 58.1668 458.862 54.1901 458.862 46.1349C458.862 37.9875 464.197 34.1999 469.73 34.1999C475.356 34.1999 480.598 37.9826 480.598 46.1349C480.598 54.2871 475.356 58.1668 469.73 58.1668Z" fill="#FF4E75"></path>
<path d="M414.571 70.2324H408.325C405.963 70.2324 404.052 68.3216 404.052 65.9599V4.27253C404.052 1.91076 405.963 0 408.325 0H414.571C416.933 0 418.844 1.91076 418.844 4.27253V65.9599C418.844 68.3216 416.933 70.2324 414.571 70.2324Z" fill="#FF4E75"></path>
<path d="M166.149 21.4545C160.896 20.7998 154.815 22.8318 152.526 32.0607C152.463 32.308 152.424 32.5214 152.269 32.6766C151.736 33.21 150.601 32.6378 150.969 31.7842C150.969 31.7842 152.351 28.9327 152.356 27.2983C152.366 24.4225 150.067 22.0171 147.196 22.0171H143.855C140.78 22.0171 138.292 24.5098 138.292 27.5796V64.9121C138.292 67.851 140.674 70.237 143.617 70.237H147.72C150.659 70.237 153.045 67.8558 153.045 64.9121V45.9161C153.045 41.5514 152.579 36.8473 160.843 37.5602C160.843 37.5602 169.456 38.564 169.456 32.3953C169.456 30.3827 169.456 27.3905 169.456 26.6194C169.446 24.1897 168.753 21.7794 166.149 21.4545Z" fill="#FF4E75"></path>
<path d="M435.454 70.2324H429.208C426.846 70.2324 424.935 68.3216 424.935 65.9599V4.27253C424.935 1.91076 426.846 0 429.208 0H435.454C437.816 0 439.726 1.91076 439.726 4.27253V65.9599C439.726 68.3216 437.816 70.2324 435.454 70.2324Z" fill="#FF4E75"></path>
<path d="M127.317 21.9883H123.975C121.099 21.9883 118.805 24.3937 118.815 27.2696C118.82 28.9039 120.202 31.7555 120.202 31.7555C120.566 32.609 119.533 33.288 118.902 32.6478C118.723 32.4635 118.626 32.2404 118.519 31.9931C118.519 31.9931 114.324 20.548 102.191 20.548C89.4555 20.548 79.2131 28.6566 79.2131 45.5575C79.2131 62.4585 88.825 71.6631 101.851 71.6631C112.341 71.6631 116.361 62.9968 116.691 62.3276C117.04 61.6147 117.191 61.0375 117.574 60.8436C118.01 60.6205 119.121 60.8048 118.636 62.2597L117.68 65.4071C117.079 68.2295 118.034 70.2131 120.973 70.2131H127.559C130.498 70.2131 132.884 67.8319 132.884 64.8882V27.5508C132.884 24.481 130.391 21.9883 127.317 21.9883ZM105.033 59.0637C98.5922 59.0637 93.374 53.9522 93.374 45.5672C93.374 36.7748 98.3837 32.1725 105.033 32.1725C111.371 32.1725 116.584 36.7748 116.584 45.5672C116.584 54.1559 111.269 59.0637 105.033 59.0637Z" fill="#FF4E75"></path>
<path d="M393.349 21.9883H390.007C387.132 21.9883 384.838 24.3937 384.847 27.2696C384.852 28.9039 386.234 31.7555 386.234 31.7555C386.598 32.609 385.565 33.288 384.935 32.6478C384.755 32.4635 384.658 32.2404 384.552 31.9931C384.552 31.9931 380.357 20.548 368.223 20.548C355.488 20.548 345.245 28.6566 345.245 45.5575C345.245 62.4585 354.857 71.6631 367.883 71.6631C378.373 71.6631 382.393 62.9968 382.723 62.3276C383.072 61.6147 383.223 61.0375 383.606 60.8436C384.042 60.6205 385.153 60.8048 384.668 62.2597L383.713 65.4071C383.111 68.2295 384.067 70.2131 387.005 70.2131H393.591C396.53 70.2131 398.916 67.8319 398.916 64.8882V27.5508C398.916 24.481 396.423 21.9883 393.349 21.9883ZM371.065 59.0637C364.624 59.0637 359.406 53.9522 359.406 45.5672C359.406 36.7748 364.416 32.1725 371.065 32.1725C377.403 32.1725 382.617 36.7748 382.617 45.5672C382.617 54.1559 377.301 59.0637 371.065 59.0637Z" fill="#FF4E75"></path>
<path d="M279.333 27.2938C279.343 24.418 277.044 22.0126 274.173 22.0126H270.832C267.757 22.0126 265.269 24.5053 265.269 27.5751V64.9076C265.269 67.8464 267.65 70.2325 270.594 70.2325H274.697C277.636 70.2325 280.022 67.8513 280.022 64.9076V42.4877C280.022 38.123 282.835 34.1463 287.975 34.1463C293.315 34.1463 295.735 37.7351 295.735 42.2937V64.9124C295.735 67.8513 298.116 70.2373 301.059 70.2373H304.968C307.907 70.2373 310.293 67.8561 310.293 64.9124V42.3907C310.293 38.123 313.106 34.1463 318.344 34.1463C323.581 34.1463 326.011 37.7351 326.011 42.2937V64.9124C326.011 67.8513 328.392 70.2373 331.336 70.2373H334.954C337.892 70.2373 340.278 67.8561 340.278 64.9124V38.996C340.278 25.8971 331.927 20.548 322.81 20.548C316.913 20.548 309.318 24.9854 308.484 32.2501C308.441 32.6381 308.101 32.9291 307.708 32.9291C307.315 32.9291 306.995 32.6381 306.928 32.2501C305.89 26.1687 299.784 20.5528 293.227 20.548C288.159 20.548 281.554 22.8418 279.522 32.0562C279.469 32.3035 279.42 32.5169 279.265 32.6721C278.63 33.3122 277.597 32.6333 277.965 31.7797C277.946 31.7797 279.333 28.933 279.333 27.2938Z" fill="#FF4E75"></path>
<path d="M229.912 64.7426C229.912 67.7785 227.448 70.2421 224.412 70.2421H220.663C217.628 70.2421 215.164 67.7785 215.164 64.7426V5.50433C215.164 2.46361 217.628 0 220.668 0H225.741C225.741 0 231.08 0 231.231 5.54313C231.381 10.999 230.751 17.2792 230.207 20.5527C229.577 24.3258 229.325 26.4062 227.38 30.5284C227.007 31.3141 228.059 31.9009 228.554 31.5517C228.777 31.3917 228.825 31.1928 228.947 30.7952C231.342 22.9533 236.473 20.5527 242.307 20.5527C254.688 20.5527 260.474 29.3985 260.474 39.9707V64.7426C260.474 67.7785 258.01 70.2421 254.975 70.2421H251.231C248.195 70.2421 245.731 67.7785 245.731 64.7426V42.4925C245.731 37.7398 243.209 34.1511 237.87 34.1511C233.214 34.1511 229.907 36.6972 229.926 41.799L229.912 64.7426Z" fill="#FF4E75"></path>
<path d="M565.947 22.0123H562.62C562.62 22.0123 557.993 21.9735 555.292 27.1481C552.707 32.0996 551.936 35.1112 551.18 38.5205C550.564 41.2945 549.395 47.0219 550.661 53.7241C550.811 54.5097 549.492 54.8153 549.162 54.1896C549.065 54.0054 548.954 53.2731 548.91 53.0112C548.507 50.6009 547.339 43.7823 546.039 38.4089C544.754 33.0792 543.134 25.4556 536.975 23.734C535.452 23.2781 531.655 23.1278 529.507 23.734C523.352 25.4556 521.728 33.084 520.443 38.4089C519.143 43.7872 517.974 50.6058 517.572 53.0112C517.528 53.2731 517.412 54.0054 517.319 54.1896C516.994 54.8201 515.675 54.5146 515.821 53.7241C517.087 47.0219 515.918 41.2945 515.302 38.5205C514.545 35.116 513.779 32.0996 511.189 27.1481C508.488 21.9735 503.862 22.0123 503.862 22.0123H500.535C497.14 22.0123 494.715 25.2907 495.705 28.5351L507.363 66.6823C508.003 68.7725 509.929 70.1983 512.116 70.1983H517.625C521.912 70.1983 523.197 69.7812 525.472 64.8976C528.411 58.598 532.261 42.3614 532.402 41.7649C532.571 41.0374 532.867 40.9114 533.241 40.9162C533.614 40.9114 533.91 41.0374 534.08 41.7649C534.22 42.3614 538.071 58.598 541.01 64.8976C543.284 69.7764 544.57 70.1983 548.857 70.1983H554.366C556.548 70.1983 558.478 68.7725 559.118 66.6823L570.777 28.5351C571.766 25.2907 569.341 22.0123 565.947 22.0123Z" fill="#FF4E75"></path>
</svg>
